# xmcd CD database file
#
# Track frame offsets:
#	150
#	11257
#	26422
#	41525
#	60025
#	78535
#	93562
#	112862
#	124352
#	140654
#	160094
#	181334
#	197089
#	216549
#	230576
#
# Disc length: 3236 seconds
#
# Revision: 2
# Processed by: cddbd v1.4b41PL1 Copyright (c) Steve Scherf et al.
# Submitted via: Feurio! 1.50.2ß - http://www.feurio.com
#
DISCID=c40ca20f
DTITLE=Various Artist - Celtic Moods (El latido de la música celta) - Disco 1
DYEAR=1900
DGENRE=
TTITLE0=Enno Morricone - Grabiel's Oboe (from The Mission)
TTITLE1=Bill Whelan - Heartland
TTITLE2=David Downes - Atlantic Crossing
TTITLE3=Trad.Arr.Downes - She Moves Thr' the fair
TTITLE4=Dougie Mc Lean - Caledonia
TTITLE5=David Downes - Reel Low Whistle
TTITLE6=Davis Agnew - Celtic Prayer
TTITLE7=Arr.Frank Gallagher - Lanningan's Ball ant the Kerry Dances
TTITLE8=David Downes - Barry Mc Crea - Homecoming
TTITLE9=Trad.Arr.Downes - The Skye Boat Song
TTITLE10=Patrick Cassidy - St. Patrick Breatsplate
TTITLE11=Frank Gallagher - The Road to Glenaan
TTITLE12=Trad.Arr.Downes - Raglan Road
TTITLE13=Rutter - Gaelic Blessinf
TTITLE14=Thomas Newman - Scent of a Woman
EXTD=
EXTT0=Celtic Moods (El latido de la música celta III) cd uno
EXTT1=Celtic Moods (El latido de la música celta III) cd uno
EXTT2=Celtic Moods (El latido de la música celta III) cd uno
EXTT3=Celtic Moods (El latido de la música celta III) cd uno
EXTT4=Celtic Moods (El latido de la música celta III) cd uno
EXTT5=Celtic Moods (El latido de la música celta III) cd uno
EXTT6=Celtic Moods (El latido de la música celta III) cd uno
EXTT7=Celtic Moods (El latido de la música celta III) cd uno
EXTT8=Celtic Moods (El latido de la música celta III) cd uno
EXTT9=Celtic Moods (El latido de la música celta III) cd uno
EXTT10=Celtic Moods (El latido de la música celta III) cd uno
EXTT11=Celtic Moods (El latido de la música celta III) cd uno
EXTT12=Celtic Moods (El latido de la música celta III) cd uno
EXTT13=Celtic Moods (El latido de la música celta III) cd uno
EXTT14=Celtic Moods (El latido de la música celta III) cd uno
PLAYORDER=
